<?xml version="1.0" encoding="utf-8"?>
<!-- Generator: Adobe Illustrator 22.0.0, SVG Export Plug-In . SVG Version: 6.00 Build 0)  -->
<svg version="1.1" id="Layer_1" xmlns="http://www.w3.org/2000/svg" xmlns:xlink="http://www.w3.org/1999/xlink" x="0px" y="0px"
	 viewBox="0 0 681.6 353.8" style="enable-background:new 0 0 681.6 353.8;" xml:space="preserve" width="960" height="560">
<style type="text/css">
	.st0{fill:#FFFFFF;}
	.st1{fill:none;}
</style>
<g>
	<path class="st0" d="M211.8,230.8c3.7,2.1,6.6,5.1,8.7,8.9c2.1,3.8,3.2,8.1,3.2,12.9s-1.1,9.1-3.2,13s-5,6.8-8.7,9
		c-3.7,2.1-7.8,3.2-12.2,3.2c-5.2,0-9.8-1.4-13.7-4.2c-4-2.8-6.8-6.5-8.4-11.3v15.2h-1.9v-71.2h1.9v36.7c1.7-4.7,4.5-8.4,8.5-11.2
		c4-2.8,8.6-4.2,13.7-4.2C204,227.5,208.1,228.6,211.8,230.8z M210.9,272.9c3.4-2,6-4.8,8-8.3c1.9-3.6,2.9-7.6,2.9-12
		c0-4.5-1-8.5-2.9-12s-4.6-6.3-8-8.3c-3.4-2-7.2-2.9-11.3-2.9c-4.2,0-7.9,1-11.3,2.9c-3.4,2-6,4.7-8,8.3s-2.9,7.6-2.9,12
		c0,4.5,1,8.5,2.9,12c1.9,3.6,4.6,6.3,8,8.3c3.4,2,7.2,3,11.3,3C203.7,275.9,207.5,274.9,210.9,272.9z"/>
	<path class="st0" d="M239.9,206.2h1.9v71.2h-1.9V206.2z"/>
	<path class="st0" d="M305.5,227.8v49.6h-1.9v-13.2c-1.5,4.2-3.9,7.5-7.4,9.9c-3.5,2.4-7.6,3.6-12.6,3.6c-6.4,0-11.4-1.8-15-5.3
		c-3.6-3.6-5.4-8.7-5.4-15.3v-29.3h1.9v29.3c0,6.1,1.6,10.7,4.8,14c3.2,3.2,7.7,4.8,13.5,4.8c6.2,0,11.1-1.9,14.7-5.8
		c3.6-3.9,5.4-9,5.4-15.3v-27H305.5z"/>
	<path class="st0" d="M367.8,252.6h-44.2c0,4.5,1,8.5,3,12c2,3.6,4.7,6.3,8.2,8.3c3.5,2,7.4,3,11.8,3c3.4,0,6.6-0.7,9.6-2
		c3-1.3,5.4-3.2,7.3-5.7l1.3,1.3c-2.2,2.6-4.9,4.6-8.1,6c-3.2,1.4-6.6,2.1-10.2,2.1c-4.7,0-9-1.1-12.7-3.2c-3.7-2.1-6.7-5.1-8.8-9
		c-2.1-3.8-3.2-8.2-3.2-13s1-9.1,3-12.9c2-3.8,4.7-6.8,8.2-8.9c3.5-2.1,7.4-3.2,11.8-3.2c4.3,0,8.2,1.1,11.7,3.2
		c3.5,2.1,6.3,5,8.3,8.7c2,3.7,3,7.9,3,12.7V252.6z M334.2,232.1c-3.1,1.9-5.6,4.4-7.5,7.7c-1.9,3.3-2.9,6.9-3.1,10.9h42.3
		c-0.2-4-1.2-7.7-3.2-10.9c-1.9-3.3-4.4-5.8-7.6-7.7c-3.1-1.9-6.6-2.8-10.5-2.8S337.4,230.3,334.2,232.1z"/>
	<path class="st0" d="M420.3,230.8c3.7,2.1,6.6,5.1,8.7,8.9c2.1,3.8,3.2,8.1,3.2,12.9s-1.1,9.1-3.2,13c-2.1,3.8-5,6.8-8.7,9
		c-3.7,2.1-7.8,3.2-12.2,3.2c-5.2,0-9.8-1.4-13.7-4.2c-4-2.8-6.8-6.5-8.4-11.3v15.2H384v-71.2h1.9v36.7c1.7-4.7,4.5-8.4,8.5-11.2
		c4-2.8,8.6-4.2,13.7-4.2C412.6,227.5,416.6,228.6,420.3,230.8z M419.4,272.9c3.4-2,6-4.8,8-8.3c1.9-3.6,2.9-7.6,2.9-12
		c0-4.5-1-8.5-2.9-12s-4.6-6.3-8-8.3c-3.4-2-7.2-2.9-11.3-2.9c-4.2,0-7.9,1-11.3,2.9c-3.4,2-6,4.7-8,8.3s-2.9,7.6-2.9,12
		c0,4.5,1,8.5,2.9,12c1.9,3.6,4.6,6.3,8,8.3c3.4,2,7.2,3,11.3,3C412.2,275.9,416,274.9,419.4,272.9z"/>
	<path class="st0" d="M448.4,206.2h1.9v71.2h-1.9V206.2z"/>
	<path class="st0" d="M478.3,274.5c-3.7-2.1-6.6-5.1-8.6-9c-2.1-3.8-3.1-8.2-3.1-13s1-9.1,3.1-12.9c2.1-3.8,5-6.8,8.6-8.9
		c3.7-2.1,7.8-3.2,12.3-3.2c4.5,0,8.7,1.1,12.3,3.2c3.7,2.1,6.6,5.1,8.6,8.9c2.1,3.8,3.1,8.1,3.1,12.9s-1,9.1-3.1,13
		c-2.1,3.8-5,6.8-8.6,9c-3.7,2.1-7.8,3.2-12.3,3.2C486.1,277.7,482,276.7,478.3,274.5z M502,272.9c3.4-2,6-4.8,8-8.3
		c1.9-3.6,2.9-7.6,2.9-12c0-4.5-1-8.5-2.9-12s-4.6-6.3-8-8.3c-3.4-2-7.2-2.9-11.3-2.9c-4.2,0-7.9,1-11.3,2.9c-3.4,2-6,4.7-8,8.3
		s-2.9,7.6-2.9,12c0,4.5,1,8.5,2.9,12c1.9,3.6,4.6,6.3,8,8.3c3.4,2,7.2,3,11.3,3C494.8,275.9,498.6,274.9,502,272.9z"/>
	<path class="st0" d="M536.9,274.5c-3.7-2.1-6.6-5.1-8.6-9c-2.1-3.8-3.1-8.2-3.1-13s1-9.1,3.1-12.9c2.1-3.8,5-6.8,8.6-8.9
		c3.7-2.1,7.8-3.2,12.3-3.2c4.5,0,8.7,1.1,12.3,3.2c3.7,2.1,6.6,5.1,8.6,8.9c2.1,3.8,3.1,8.1,3.1,12.9s-1,9.1-3.1,13
		c-2.1,3.8-5,6.8-8.6,9c-3.7,2.1-7.8,3.2-12.3,3.2C544.6,277.7,540.5,276.7,536.9,274.5z M560.5,272.9c3.4-2,6-4.8,8-8.3
		c1.9-3.6,2.9-7.6,2.9-12c0-4.5-1-8.5-2.9-12s-4.6-6.3-8-8.3c-3.4-2-7.2-2.9-11.3-2.9c-4.2,0-7.9,1-11.3,2.9c-3.4,2-6,4.7-8,8.3
		s-2.9,7.6-2.9,12c0,4.5,1,8.5,2.9,12c1.9,3.6,4.6,6.3,8,8.3c3.4,2,7.2,3,11.3,3C553.3,275.9,557.1,274.9,560.5,272.9z"/>
	<path class="st0" d="M631.8,206.2v71.2h-1.9v-15.2c-1.7,4.7-4.5,8.5-8.4,11.3c-4,2.8-8.5,4.2-13.7,4.2c-4.5,0-8.6-1.1-12.2-3.2
		c-3.7-2.1-6.6-5.1-8.7-9c-2.1-3.8-3.2-8.2-3.2-13s1.1-9.1,3.2-12.9c2.1-3.8,5-6.8,8.7-8.9c3.7-2.1,7.8-3.2,12.2-3.2
		c5.1,0,9.7,1.4,13.7,4.2c4,2.8,6.8,6.5,8.5,11.2v-36.7H631.8z M619.1,272.9c3.4-2,6-4.8,8-8.3c1.9-3.6,2.9-7.6,2.9-12
		c0-4.5-1-8.5-2.9-12s-4.6-6.3-8-8.3c-3.4-2-7.2-2.9-11.3-2.9c-4.2,0-7.9,1-11.3,2.9c-3.4,2-6,4.7-8,8.3s-2.9,7.6-2.9,12
		c0,4.5,1,8.5,2.9,12c1.9,3.6,4.6,6.3,8,8.3c3.4,2,7.2,3,11.3,3C611.9,275.9,615.7,274.9,619.1,272.9z"/>
</g>
<rect x="171.6" y="78.8" class="st1" width="510" height="275"/>
<g>
	<path class="st0" d="M42.3,174.4c-1.5-1.1-0.3,0.4,2,2.3C44.4,176.1,43.5,175.2,42.3,174.4z"/>
	<path class="st0" d="M374.6,83.2c-7.1-2.3-14.6,13.1-18.3,16c-0.6,0.4-1.5,0.2-1.6-0.6c-0.8-3.3-5.7-15.1-33.2-31.5
		c-32.5-19.9-67.1-20.8-70.1-20.4c0,0-46.9-8.1-56.3,26.4c-7.7,28.5-32,42-45.5,47.6c-13,5.7-22.9,23.8-33.7,27.7
		c-10.4,3.9-12.5,3-19.4,9.9l-0.1,0.1c-0.4,0.5-5.8,6.7-10.4,12.9c-4.7,6.5-21.6,6.5-25.5,6.1c-5.7-0.8-10.3-8.6-10.7-9.5
		c0-0.1-0.1-0.1-0.1-0.1c-3.8-4.7-0.4-0.8-6-6.4c-7.5-7.2-9.3-0.2-11.9,2.4c-0.6,0.6,4.9,3.7,5.7,4l4.5,1.8c0,0-5.7,0.4-6.5,0.4
		c-1.4,0-3-0.2-4.2-0.6c-0.7-0.2-1.5,0.4-1.3,1.1c0.2,2,1.2,4.9,5.2,5.5c3.5,0.4,5.2,0.4,6.5,0.4l-5.2,0.8c0,0,0.4,0,1.3,0.4
		c1.3,0.4,3,0.8,4.3,0.4h0.4c1.3-0.4,1.8-0.8,1.9-1.4c-2.3-2-3.5-3.4-2-2.3c1.2,0.8,2.1,1.6,2,2.3c2.7,2.3,6.9,5.6,10.1,6.7
		c7.8,2.6,9.5,2.2,19,1.3c11.2-1.3,10.4-2.1,15.5-4.3c0.1,0,0.1-0.1,0.1-0.1c0.6-0.4,5.3-3.2,8.1-6.4c0-0.4,0.4-0.4,0.4-0.8
		c0.8-1.3,3-3.5,6.1-3.5c0,0-5.2,12.5,5.7,24.3c0,0,0,0.4,0.4,0.4c0.8,0.8,2.2,4.3-2.6,11.7c-0.4,0.4-0.4,0.8-0.8,0.8
		c-0.8,0.4-9.1,10-6.9,19.4c1.7,7.5-3,10.7-5.1,11.7c-0.5,0.2-0.7,0.8-0.5,1.3c0.4,0.8,0.8,1.9,1.3,3.4c0,0.4,0.4,1.3,0.4,1.7
		c2.2,7.8,4.3,19,4.3,21.6v0.4l-1.2,8.6c-0.1,0.6,0.3,1.1,0.8,1.1c12.5,2.7,19.5,0.6,21.1-0.1c0.3-0.1,0.4-0.3,0.6-0.5
		c4-8.1,0.7-13.5,0.7-13.5s-4.2,2.1-8.1-10.1c-0.1-0.2-0.1-0.4,0-0.6c0.6-1.9,3.6-12.7,6-16.5c0-0.4,0.8-0.8,2.2-1.7
		c0.8-0.8,2.2-1.3,3.9-2.2c0,0,18.2-5.7,20.4-7.4c4.7-2.6,8.2-5.2,9.5-8.2l7.8-7.8c0,0,14.8-18.4,23.5-22.4c0.1-0.1,0.2-0.1,0.3-0.1
		c0.4-0.1,0.8-0.4,1.1-0.4c0.4,0,1.3-0.4,1.7-0.4c3-0.8,6.1-1.7,9.1-3c1.3-0.4,2.6-0.8,3.9-1.3c1.3-0.4,2.5-0.8,3.4-0.8
		c0.1,0,0.1,0,0.2,0c1.7-0.4,3.4-0.8,5.4-0.8c0.1,0,0.1,0,0.1,0c8.6,0.8,23.7-1.3,50.7-14.1c0.2-0.1,0.4-0.1,0.6-0.1
		c1.3,0.2,6.2,0.8,10.1,0.1c1-0.1,1.6,1,1,1.7c-2.1,2.4-4.7,5.7-5.3,7.4c-0.1,0.1-0.1,0.3-0.3,0.4c-0.6,0.5-2.5,1.8-8.6,1.6
		c-0.1,0-0.2,0-0.3-0.1c-0.3-0.1-1.6-0.4-7.3-1.1c-0.4-0.1-0.8,0.1-1.1,0.4c-0.1,0.1-0.1,0.2-0.2,0.3h-2c-0.6,0-1.1,0.5-1.1,1.1V190
		c0,3.1,0,5.7,0.2,6.8c0.1,0.4,0.4,0.7,0.7,0.8c0.7,0.2,1.4,0.1,2.1-0.2c0.4,0,0.4,0,0.4,0s6.9-1.7,11.7-4.7
		c0.4-0.4,1.3-0.4,1.7-0.8c3.4-2.1,1.3-4.7,16.8-5.2c0.4,0,0.6-0.2,0.8-0.4c1.8-2.8,11.8-17.6,16.1-20.3c0,0,6.5-4.3,9.5-9.1
		c2.1,3.9,3.4,6,4.2,7.1c0.2,0.3,0.2,0.6,0.1,0.9c0,0.1,0,0.1,0,0.1c-0.4,0.8,0,2.6,0,2.6c0,2.6-0.8,3.5-1.7,3.9c0,0-0.4,0-0.4,0.4
		h-0.4c-0.4,0.4-0.4,0.4,0.4,1.7c2.6,3,5.3-3.5,9.5-0.8c2.6-1.3,5.9,4.5,6.4,5.3c0.4,0.8,4.5,6.4,7.9,3.3c2.4-2.1,2.5-2.8,2.2-3.1
		c-0.3-0.3-0.4-0.7-0.2-1.1l0.6-1.5c0,0,0-0.1,0.1-0.1c3-6.1,12.1-21.6,16.4-25.9c0.8-0.8,2.2-2.6,2.6-3.9c2.2-3,3.5-10.4,3.5-10.4
		l0,0c0-0.7,0.7-1.2,1.3-1c1.7,0.6,4.6-3.2,5.9-2.9c2.4,0.5,4.9,2.1,4.9,2.1l1.7,0.6c0.4-0.4,1.4,0.4,6.4,5.6c1.3,1.3,2.6,5.2,4.1,7
		c2.6,3,3.3,7.4,4.7,9.1c0,0,0,0.4,0.4,0.4c0,0,0,0.4,0.4,0.4c0.4,0.4,0.8,0.8,0.8,1.7c0.1-34.6-13.2-46-29.7-41.9
		c-0.6,0.1-1.1-0.2-1.3-0.7c-0.1-0.2-0.1-0.4-0.1-0.6c-0.1-0.4,0-0.7,0.3-1c20-20.7,14.3-14.9,24.7,9.5c0.1,0.2,0.1,0.4,0.3,0.6
		c2.4,2.3,4.1,4.5,5.2,6.2c0.6,0.8,1.9,0.5,1.9-0.6C392.4,102.7,396.7,90.3,374.6,83.2z"/>
</g>
<rect x="0" y="2.5" class="st1" width="510" height="275"/>
</svg>
